<svg xmlns="http://www.w3.org/2000/svg" viewBox="0 0 254.74 485.41"><defs><style>.cls-1{fill:#0b947f;}</style></defs><g id="Layer_2" data-name="Layer 2"><g id="Layer_1-2" data-name="Layer 1"><path class="cls-1" d="M12.37,383.11q12.54-14,31.09-14c21.4,0,34.1,13.37,34.1,32.43,0,19.39-18.72,32.09-27.75,41.12C30.42,462,52.15,484.41,75.55,484.41c30.76,0,46.47-59.51,45.47-81.24V1H56.83V0H254.74V1H190.55V350.35c0,64.86-27.41,135.06-115,135.06-21.73,0-39.78-6-54.15-18.39S0,437.27,0,415.21A46.65,46.65,0,0,1,12.37,383.11Z"/></g></g></svg>