<svg xmlns="http://www.w3.org/2000/svg" viewBox="0 0 433.57 449.22"><defs><style>.cls-1{fill:#015495;}</style></defs><g id="Layer_2" data-name="Layer 2"><g id="Layer_1-2" data-name="Layer 1"><path class="cls-1" d="M433.57,224.92q0,49.4-15.65,90.67t-44.19,71Q345.2,416.4,305.16,432.8t-88.53,16.42q-48.48,0-88.37-16.42T59.83,386.62q-28.53-29.76-44.18-71T0,224.92q0-49.41,15.65-90.68T59.83,63.06a198.65,198.65,0,0,1,68.43-46.49Q168.15,0,216.63,0t88.53,16.57q40,16.58,68.57,46.49t44.19,71.18Q433.57,175.52,433.57,224.92Zm-61.06,0q0-40.51-11.05-72.73t-31.3-54.46a135.77,135.77,0,0,0-49.09-34.21q-28.85-12-64.44-12-35.3,0-64.13,12a137.15,137.15,0,0,0-49.25,34.21Q82.85,120,71.8,152.19t-11,72.73q0,40.5,11,72.57t31.45,54.31a135.68,135.68,0,0,0,49.25,34.06q28.84,11.81,64.13,11.81,35.6,0,64.44-11.81a134.32,134.32,0,0,0,49.09-34.06q20.25-22.24,31.3-54.31T372.51,224.92Z"/></g></g></svg>