<svg xmlns="http://www.w3.org/2000/svg" viewBox="0 0 229.52 282.55"><defs><style>.cls-1,.cls-2{fill:#231f20;}.cls-2{font-size:26px;font-family:Roboto-Regular, Roboto;}.cls-3{letter-spacing:-0.04em;}.cls-4{letter-spacing:-0.05em;}.cls-5{letter-spacing:-0.02em;}.cls-6{letter-spacing:-0.01em;}.cls-7{letter-spacing:-0.01em;}</style></defs><g id="Layer_2" data-name="Layer 2"><g id="Layer_1-2" data-name="Layer 1"><path class="cls-1" d="M75.1,168.46c0,3.3-.3,6.6-.6,10.2,11.4-7.5,23.4-22.5,31.2-38.1,1.8-3.6,4.8-3.9,6.3.3,1.5,4.5-.3,11.1-3,18-3,7.2-18,24.9-36,31.2-4.8,30.3-18,63.6-32.4,81.6-10.2,12.6-17.7,13.8-26.7,6-7.5-6.3-16.5-18-13.2-43.5C9.1,167.26,78.1,52.36,111.4,2.55c2.4-3.6,6.3-3.3,7.5.3,3.6,10.2,2.7,23.1-10.2,45-12.3,20.4-33,54.3-49.2,85.8C70.9,137.26,75.4,148.66,75.1,168.46ZM17.2,266c6.6,8.7,29.1-32.7,39-73.8-8.7-.9-14.7-4.8-18.3-12C21.1,220.06,10.3,257.26,17.2,266Zm43.5-104.1c.3-11.1-2.7-20.4-4.8-19.5-3,1.2-5.7,17.1-6,24-.3,9.6,2.4,15.9,8.1,17.1A137.11,137.11,0,0,0,60.7,161.86Z"/><text class="cls-2" transform="translate(130.59 117.67)">Fil<tspan class="cls-3" x="26.99" y="0">o</tspan><tspan class="cls-4" x="40.8" y="0">’</tspan><tspan x="44.57" y="0">s</tspan><tspan class="cls-5" x="0" y="31.2">F</tspan><tspan class="cls-6" x="13.94" y="31.2">av</tspan><tspan x="40.29" y="31.2">orite </tspan><tspan class="cls-7" x="0" y="62.4">F</tspan><tspan x="14.1" y="62.4">onts</tspan></text></g></g></svg>