<svg xmlns="http://www.w3.org/2000/svg" viewBox="0 0 519.85 519.85"><defs><style>.cls-1{fill:#d11b8a;}</style></defs><g id="Layer_2" data-name="Layer 2"><g id="Layer_1-2" data-name="Layer 1"><path class="cls-1" d="M59.82,199.41c0-107.27,0-126.52-1.37-148.53C57.07,27.51,51.57,16.5,28.88,11.69,23.38,10.31,11.69,9.63,5.5,9.63,2.75,9.63,0,8.25,0,5.5,0,1.38,3.44,0,11,0,42,0,85.27,2.06,88.7,2.06,96.27,2.06,148.53,0,169.85,0c43.32,0,89.39,4.13,125.83,30.26,17.19,12.37,47.45,46.07,47.45,93.51,0,50.89-21.32,101.77-83.2,158.85,56.38,72.2,103.14,133.4,143,176,37.13,39.2,66.69,46.76,83.89,49.51a164.28,164.28,0,0,0,26.81,2.07c3.44,0,6.19,2.06,6.19,4.12,0,4.13-4.12,5.5-16.5,5.5H454.53c-38.51,0-55.7-3.44-73.58-13.06-29.57-15.82-53.64-49.51-92.83-101.08-28.88-37.83-61.2-83.9-75-101.77-2.75-2.76-4.82-4.13-8.94-4.13l-84.58-1.38c-3.44,0-4.81,2.07-4.81,5.51v16.5c0,66,0,120.34,3.43,149.22,2.07,19.94,6.19,35.06,26.82,37.82,9.63,1.37,24.76,2.75,30.94,2.75,4.13,0,5.51,2.06,5.51,4.12,0,3.44-3.44,5.5-11,5.5-37.82,0-81.14-2.06-84.58-2.06-.68,0-44,2.06-64.63,2.06-7.57,0-11-1.37-11-5.5,0-2.06,1.38-4.12,5.51-4.12,6.18,0,14.44-1.38,20.62-2.75,13.76-2.76,17.2-17.88,20-37.82,3.43-28.88,3.43-83.21,3.43-149.22Zm55,59.83a9,9,0,0,0,4.81,8.25c10.31,6.19,41.94,11,72.2,11,16.5,0,35.76-2.06,51.57-13.06,24.07-16.51,42-53.64,42-105.9C285.37,73.58,240,22,166.41,22c-20.63,0-39.2,2.07-46.07,4.13a8.3,8.3,0,0,0-5.5,8.25Z"/></g></g></svg>